<svg xmlns="http://www.w3.org/2000/svg" width="200" height="200" viewBox="0 0 200 200">
  <g id="Target_Industries_Icon" data-name="Target Industries Icon" transform="translate(-3600 -480)">
    <rect id="Rectangle_41" data-name="Rectangle 41" width="200" height="200" transform="translate(3600 480)" fill="none"/>
    <g id="Group_35" data-name="Group 35" transform="translate(3619.333 499.333)">
      <path id="Path_972" data-name="Path 972" d="M408.355,212.645V173.6a2,2,0,0,0-2.8-1.833l-20.649,8.98v-6.255a2,2,0,0,0-2.665-1.887l-22.072,7.77a2,2,0,0,0-1.336,1.886v28.389h-5.811l1.727-47.5h9.46l.308,9.723a2,2,0,0,0,2,1.937h.065a2,2,0,0,0,1.936-2.062l-.37-11.659a2,2,0,0,0-2-1.937H352.824a2,2,0,0,0-2,1.927l-1.873,51.5a2,2,0,0,0,2,2.073h55.4a2,2,0,0,0,2-2m-27.447-2h-9.751V196.016h9.751Zm23.447,0H384.908V194.016a2,2,0,0,0-2-2H369.156a2,2,0,0,0-2,2v16.629h-4.321V183.673l18.073-6.361v6.482a2,2,0,0,0,2.8,1.834l20.649-8.981Z" transform="translate(-348.951 -71.981)" fill="#003a70"/>
      <path id="Path_973" data-name="Path 973" d="M409.192,207.859a2,2,0,0,0,2-2v-4.918a2,2,0,1,0-4,0v4.918a2,2,0,0,0,2,2" transform="translate(-368.365 -85.248)" fill="#003a70"/>
      <path id="Path_974" data-name="Path 974" d="M422.1,207.859a2,2,0,0,0,2-2v-4.918a2,2,0,0,0-4,0v4.918a2,2,0,0,0,2,2" transform="translate(-372.667 -85.248)" fill="#003a70"/>
      <path id="Path_975" data-name="Path 975" d="M371.016,132.346a2.024,2.024,0,0,0,.327.027,2,2,0,0,0,1.971-1.675,60.25,60.25,0,0,1,14.534-30.243v6.615a2,2,0,0,0,4,0V95.526c0-.018,0-.035,0-.053s0-.024,0-.036-.008-.043-.01-.065a1.951,1.951,0,0,0-.039-.273c-.007-.033-.014-.067-.023-.1a1.979,1.979,0,0,0-.118-.326c-.006-.013-.014-.024-.021-.037a2,2,0,0,0-.159-.265c-.02-.027-.041-.053-.061-.08a2.1,2.1,0,0,0-.179-.2c-.021-.02-.04-.041-.061-.06a2.029,2.029,0,0,0-.283-.213l-.005,0a2.042,2.042,0,0,0-.249-.129c-.019-.009-.04-.013-.059-.021s-.063-.022-.095-.033a2.03,2.03,0,0,0-.263-.069c-.031-.006-.061-.013-.092-.017a1.975,1.975,0,0,0-.36-.021h-.011l-12.177.545a2,2,0,0,0,.088,4l.091,0,7.142-.319a64.288,64.288,0,0,0-15.536,32.3,2,2,0,0,0,1.649,2.3" transform="translate(-355.747 -50.11)" fill="#003a70"/>
      <path id="Path_976" data-name="Path 976" d="M539.84,120.384l-5.729-3.307a2,2,0,0,0-2,3.464l10,5.772c.011.006.023.007.034.014s.029.021.045.029a1.945,1.945,0,0,0,.276.1c.052.018.1.044.154.057a1.985,1.985,0,0,0,.489.065h0a1.981,1.981,0,0,0,.479-.065c.027-.007.053-.011.08-.019a2.026,2.026,0,0,0,.427-.181c.028-.016.054-.034.081-.051.043-.027.087-.05.128-.081a2.031,2.031,0,0,0,.24-.213c.011-.012.021-.025.032-.038a2.006,2.006,0,0,0,.3-.425l0-.005,5.617-10.818a2,2,0,1,0-3.549-1.843l-3.295,6.346a64.288,64.288,0,0,0-20.2-29.605,2,2,0,0,0-2.535,3.094,60.255,60.255,0,0,1,18.924,27.708" transform="translate(-406.029 -48.644)" fill="#003a70"/>
      <path id="Path_977" data-name="Path 977" d="M475.415,246.036a60.258,60.258,0,0,1-33.457,2.535l5.729-3.308a2,2,0,1,0-2-3.463l-10,5.771c-.015.009-.029.02-.044.029s-.022.01-.033.017-.034.029-.053.041a2.025,2.025,0,0,0-.213.169c-.027.024-.053.047-.078.072a1.941,1.941,0,0,0-.222.263c-.01.014-.017.03-.027.045a1.925,1.925,0,0,0-.143.259c-.016.033-.029.067-.043.1a1.991,1.991,0,0,0-.077.239c-.009.033-.018.065-.025.1a2,2,0,0,0-.042.34c0,.016,0,.032,0,.049a1.871,1.871,0,0,0,.011.243c0,.019.007.036.01.054.006.039.015.078.023.117a1.952,1.952,0,0,0,.067.241c.011.034.022.068.035.1a2,2,0,0,0,.162.319l0,.008,6.56,10.273a2,2,0,1,0,3.371-2.153l-3.852-6.032a64.22,64.22,0,0,0,35.743-2.689,2,2,0,0,0-1.411-3.742" transform="translate(-377.531 -99.444)" fill="#003a70"/>
      <path id="Path_978" data-name="Path 978" d="M542.234,219.034l-15.974-.085h-.011a2,2,0,0,0-.01,4l15.974.085h.01a2,2,0,0,0,.011-4" transform="translate(-407.384 -91.917)" fill="#003a70"/>
      <path id="Path_979" data-name="Path 979" d="M557.581,190.239c-.013-.065-.037-.125-.055-.187s-.029-.119-.053-.175l-.009-.021v0l-4.8-11.775a4.86,4.86,0,0,0-4.516-3.036H536.473v-4.807a2,2,0,0,0-2-2H492.765a2,2,0,0,0-2,2v26.157a2,2,0,0,0,4,0V172.234h37.708v25.03a2,2,0,0,0,4,0v-4.632h17.148v6.229a2,2,0,0,0,4,0v-8.229a1.981,1.981,0,0,0-.04-.393m-21.108-11.2h11.671a.875.875,0,0,1,.813.547l3.688,9.045H536.473Z" transform="translate(-396.222 -75.012)" fill="#003a70"/>
      <path id="Path_980" data-name="Path 980" d="M568.544,211.175a7.287,7.287,0,1,0,7.287,7.286,7.3,7.3,0,0,0-7.287-7.286m0,10.573a3.287,3.287,0,1,1,3.287-3.287,3.291,3.291,0,0,1-3.287,3.287" transform="translate(-419.72 -89.326)" fill="#003a70"/>
      <path id="Path_981" data-name="Path 981" d="M505.1,211.175a7.287,7.287,0,1,0,7.287,7.286,7.3,7.3,0,0,0-7.287-7.286m0,10.573a3.287,3.287,0,1,1,3.287-3.287,3.291,3.291,0,0,1-3.287,3.287" transform="translate(-398.572 -89.326)" fill="#003a70"/>
      <path id="Path_982" data-name="Path 982" d="M414.566,48.391c-.019.046-.029.1-.045.145a1.957,1.957,0,0,0-.072.231c0,.006,0,.012,0,.018a2.052,2.052,0,0,0-.038.377v4.645a4.562,4.562,0,0,0,.307,1.853,6.546,6.546,0,0,0,5.548,4.015V84.824h-.9a2,2,0,0,0,0,4h58.33a2,2,0,1,0,0-4h-.9V59.652a6.532,6.532,0,0,0,5.336-3.994,4.565,4.565,0,0,0,.306-1.85V49.2a1.986,1.986,0,0,0-.351-1.162l-7.4-10.713V31.778A3.382,3.382,0,0,0,471.3,28.4H425.541a3.381,3.381,0,0,0-3.377,3.377v5.538l-7.4,10.718,0,.009a2.041,2.041,0,0,0-.168.3c-.007.015-.017.029-.023.044m10.647-8.451h46.411l4.993,7.231h-56.4Zm14.7,44.885H429.451V65.209h10.461Zm4,0V63.209a2,2,0,0,0-2-2H427.451a2,2,0,0,0-2,2V84.824h-1.188V58.839a6.626,6.626,0,0,0,1.228-.876,6.9,6.9,0,0,0,9.17,0,6.9,6.9,0,0,0,9.171,0,6.9,6.9,0,0,0,9.171,0,6.9,6.9,0,0,0,9.171,0,6.9,6.9,0,0,0,9.171,0,6.587,6.587,0,0,0,1.441,1V84.824Zm34.48-30.615a2.585,2.585,0,0,1-2.463,1.5,2.4,2.4,0,0,1-2.585-2.153,2,2,0,1,0-4,0,2.629,2.629,0,0,1-5.171,0,2,2,0,1,0-4,0,2.629,2.629,0,0,1-5.171,0,2,2,0,1,0-4,0,2.629,2.629,0,0,1-5.171,0,2,2,0,1,0-4,0,2.629,2.629,0,0,1-5.171,0,2,2,0,1,0-4,0,2.629,2.629,0,0,1-5.171,0,2,2,0,1,0-4,0,2.4,2.4,0,0,1-2.585,2.153,2.584,2.584,0,0,1-2.463-1.5.6.6,0,0,1-.037-.25c0-.035,0-.071,0-.107V51.171h60.018v2.683c0,.035,0,.071,0,.107a.589.589,0,0,1-.037.249m-7.714-18.27H426.164V32.4h44.513Z" transform="translate(-370.769 -28.401)" fill="#003a70"/>
      <path id="Path_983" data-name="Path 983" d="M484.865,77.613H462.212a2,2,0,0,0-2,2V92.362a2,2,0,0,0,2,2h22.653a2,2,0,0,0,2-2V79.613a2,2,0,0,0-2-2m-2,12.749H464.213v-8.75h18.653Z" transform="translate(-386.038 -44.805)" fill="#003a70"/>
    </g>
  </g>
</svg>
